# xmcd
#
# Track frame offsets: 
#        150
#        34461
#        69917
#        92431
#        130844
#        158064
#        199637
#        250148
#        295592
#        320805
#
# Disc length: 4310 seconds
#
# Revision: 0
# Processed by: cddbd v1.5.2PL0 Copyright (c) Steve Scherf et al.
# Submitted via: ExactAudioCopy v0.95b2
#
DISCID=8610d40a
DTITLE=Rory Gallagher - Irish Tour
DYEAR=1900
DGENRE=
TTITLE0=Cradle Rock
TTITLE1=I Wonder Who
TTITLE2=Tattoo'D Lady
TTITLE3=Too Much Alcohol
TTITLE4=As The Crow Flies
TTITLE5=A Million Miles Away
TTITLE6=Walk on Hot Coals
TTITLE7=Who's That Coming?
TTITLE8=Back on My Stumpin' Ground
TTITLE9=Maritime
EXTD=
EXTT0=
EXTT1=
EXTT2=
EXTT3=
EXTT4=
EXTT5=
EXTT6=
EXTT7=
EXTT8=
EXTT9=
PLAYORDER=
